<?xml version="1.0" encoding="utf-8"?>
<!-- Generator: Adobe Illustrator 20.0.0, SVG Export Plug-In . SVG Version: 6.00 Build 0)  -->
<svg version="1.1" id="Default" xmlns="http://www.w3.org/2000/svg" xmlns:xlink="http://www.w3.org/1999/xlink" x="0px" y="0px"
	 viewBox="0 0 792 1224" style="enable-background:new 0 0 792 1224;" xml:space="preserve">
<style type="text/css">
	.st0{fill:none;stroke:#000000;stroke-linecap:round;stroke-linejoin:round;}
</style>
<polygon class="st0" points="214.5,551.2 214.5,421.5 324.6,421.5 344.3,421.5 344.3,410.1 426.2,410.1 426.2,421.5 446,421.5 
	556,421.5 556,531.5 556,551.2 567.4,551.2 567.4,633.2 556,633.2 556,652.9 556,762.9 446,762.9 426.2,762.9 426.2,774.3 
	344.3,774.3 344.3,762.9 324.6,762.9 214.5,762.9 214.5,652.9 214.5,633.2 203.2,633.2 203.2,551.2 "/>
<path class="st0" d="M327.8,506.9c0,19,0,37.9,0,56.9c-20.4,0-40.8,0-61.2,0c-10.2,0-20.4,0-30.6,0c-0.6,0-1.1,0-1.7,0
	c-0.2,0-0.5,0.2-0.5-0.1c0-0.1,0-0.2,0-0.2c0-0.3,0-0.6,0-0.9c0-0.6,0-1.2,0-1.8c0-1.2,0-2.4,0-3.6c0-2.4,0-4.8,0-7.3
	c0-4.8,0-9.7,0-14.5c0-4.9,0-9.8,0-14.7c0-2.4,0-4.9,0-7.3c0-1.2,0-2.4,0-3.7c0-0.6,0-1.2,0-1.8c0-0.3,0-0.6,0-0.9
	c0-0.1,0.1,0,0.2,0c0.1,0,0.2,0,0.3,0c0.2,0,0.4,0,0.6,0c0.4,0,0.7,0,1.1,0c10.2,0,20.4,0,30.6,0C287,506.9,307.4,506.9,327.8,506.9
	z"/>
<path class="st0" d="M449,506.9c13.1,0,26.2,0,39.3,0c6.5,0,13.1,0,19.6,0c3.4,0,6.8,0,10.2,0c1.6,0,3.2,0,4.8,0c0.8,0,1.6,0,2.3,0
	c0.4,0,0.8,0,1.2,0c0.2,0,0.4,0,0.6,0c0.1,0,0.2,0,0.3,0c0.1,0,0.3-0.2,0.3,0c0,26.2,0,52.4,0,78.5"/>
<path class="st0" d="M341.5,506.9c31.3,0,62.6,0,93.9,0"/>
<path class="st0" d="M435.4,563.8c-31.3,0-62.6,0-93.9,0"/>
<path class="st0" d="M341.5,620.7c31.3,0,62.6,0,93.9,0"/>
<line class="st0" x1="435.4" y1="677.6" x2="341.5" y2="677.6"/>
<path class="st0" d="M327.8,677.6c0,14.4,0,28.8,0,43.3c0,1.8,0,3.6,0,5.4c0,0.9,0,1.8,0,2.7c0,0.5,0,0.9,0,1.4c0,0.2,0,0.5,0,0.7
	c0,0.4-0.4,0.1-0.6,0.1c-3.6,0-7.2,0-10.8,0c-7.2,0-14.4,0-21.6,0c-14.4,0-28.8,0-43.3,0c-3.6,0-7.2,0-10.8,0c-0.9,0-1.8,0-2.7,0
	c-0.2,0-0.5,0-0.7,0c-0.1,0-0.2,0-0.3,0c-0.1,0-0.3,0.1-0.3-0.1c0-0.5,0-0.9,0-1.4c0-1.8,0-3.6,0-5.4c0-7.2,0-14.4,0-21.6
	c0-14.4,0-28.8,0-43.3c0-7.2,0-14.4,0-21.6c0-3.6,0-7.2,0-10.8c0-1.8,0-3.6,0-5.4c0-0.2,0-0.5,0-0.7c0-0.3,0.3-0.2,0.5-0.2
	c0.5,0,0.9,0,1.4,0c0.9,0,1.8,0,2.7,0c28.8,0,57.7,0,86.5,0"/>
<line class="st0" x1="341.5" y1="563.8" x2="341.5" y2="506.9"/>
<polygon class="st0" points="435.4,563.8 435.4,506.9 413.7,506.9 341.5,506.9 341.5,563.8 413.7,563.8 "/>
<polygon class="st0" points="449,585.4 527.5,585.4 527.5,506.9 470.6,506.9 449,506.9 "/>
<path class="st0" d="M449,599c26.2,0,52.4,0,78.5,0c0,26.2,0,52.4,0,78.5c0,14.2,0,28.5,0,42.7c0,6.6-5.4,12-12,12
	c-6.6,0-12-5.4-12-12c0-14.2,0-28.5,0-42.7c-11,0-22,0-33,0c-7.2,0-14.4,0-21.6,0C449,651.4,449,625.2,449,599z"/>
<rect x="236.7" y="620.7" class="st0" width="91.1" height="110.4"/>
<rect x="341.5" y="620.7" class="st0" width="93.9" height="56.9"/>
<circle class="st0" cx="515.6" cy="720.3" r="5.7"/>
<polygon class="st0" points="327.8,563.8 327.8,506.9 306.2,506.9 233.9,506.9 233.9,563.8 306.2,563.8 "/>
<rect x="327.8" y="506.9" class="st0" width="13.7" height="56.9"/>
</svg>
